<?xml version="1.0" encoding="UTF-8"?>
<!DOCTYPE svg PUBLIC "-//W3C//DTD SVG 1.1//EN" "http://www.w3.org/Graphics/SVG/1.1/DTD/svg11.dtd">
<svg xmlns="http://www.w3.org/2000/svg" version="1.1" width="613px" height="496px" style="shape-rendering:geometricPrecision; text-rendering:geometricPrecision; image-rendering:optimizeQuality; fill-rule:evenodd; clip-rule:evenodd" xmlns:xlink="http://www.w3.org/1999/xlink">
<g><path style="opacity:0.14" fill="#000000" d="M 164.5,-0.5 C 167.167,-0.5 169.833,-0.5 172.5,-0.5C 180.285,2.92631 187.618,7.25965 194.5,12.5C 194.5,16.5 194.5,20.5 194.5,24.5C 193.886,46.8325 193.219,69.1658 192.5,91.5C 192.501,96.0134 192.834,100.347 193.5,104.5C 196.508,110.544 199.508,116.544 202.5,122.5C 205.806,129.774 209.472,136.774 213.5,143.5C 218.883,155.267 224.55,166.934 230.5,178.5C 228.096,179.843 225.762,181.177 223.5,182.5C 221.973,182.427 220.973,183.094 220.5,184.5C 215.787,186.721 212.62,190.388 211,195.5C 209.71,199.73 209.21,204.064 209.5,208.5C 208.343,217.324 208.176,226.324 209,235.5C 209.472,239.11 210.972,242.11 213.5,244.5C 215.892,249.225 219.559,252.558 224.5,254.5C 225.551,255.222 226.218,256.222 226.5,257.5C 188.822,300.513 151.489,343.847 114.5,387.5C 102.458,402.208 90.7915,417.208 79.5,432.5C 73.4845,439.186 67.8178,446.186 62.5,453.5C 59.4838,456.52 56.8171,459.854 54.5,463.5C 50.4078,467.258 47.0745,471.591 44.5,476.5C 41.3648,479.808 38.3648,483.308 35.5,487C 63.498,487.5 91.498,487.667 119.5,487.5C 155.168,487.667 190.835,487.5 226.5,487C 227.381,486.292 228.047,485.458 228.5,484.5C 228.5,483.833 228.833,483.5 229.5,483.5C 232.862,483.07 235.695,484.07 238,486.5C 238.561,489.298 237.394,491.131 234.5,492C 217.391,493.801 200.391,494.967 183.5,495.5C 147.833,495.5 112.167,495.5 76.5,495.5C 61.9836,494.778 47.3169,493.945 32.5,493C 30.1667,492.667 27.8333,492.333 25.5,492C 23.6969,491.363 22.3636,490.197 21.5,488.5C 14.1968,487.503 6.86348,487.169 -0.5,487.5C -0.5,485.5 -0.5,483.5 -0.5,481.5C 0.704964,478.766 2.20496,476.099 4,473.5C 31.0474,440.121 57.714,406.454 84,372.5C 116.707,335.462 149.04,298.129 181,260.5C 181.667,259.167 181.667,257.833 181,256.5C 175.255,251.013 171.588,244.346 170,236.5C 168.873,221.333 169.873,206.333 173,191.5C 174.333,188.833 175.667,186.167 177,183.5C 180.576,180.263 183.743,176.763 186.5,173C 176.491,152.482 166.324,131.982 156,111.5C 155.178,109.212 154.511,106.878 154,104.5C 153.834,75.4876 154.5,46.4876 156,17.5C 155.505,9.7693 158.339,3.7693 164.5,-0.5 Z"/></g>
<g><path style="opacity:0.729" fill="#9b2d3d" d="M 207.5,14.5 C 203.811,12.9031 200.311,10.9031 197,8.5C 196.023,13.7926 195.523,19.1259 195.5,24.5C 195.167,24.5 194.833,24.5 194.5,24.5C 194.5,20.5 194.5,16.5 194.5,12.5C 195.301,10.9582 195.634,9.29152 195.5,7.5C 200.121,8.80898 204.121,11.1423 207.5,14.5 Z"/></g>
<g><path style="opacity:0.537" fill="#bd4752" d="M 207.5,14.5 C 209.853,15.3403 211.853,16.6736 213.5,18.5C 210.802,18.1551 208.802,16.8218 207.5,14.5 Z"/></g>
<g><path style="opacity:0.741" fill="#b2404d" d="M 213.5,18.5 C 219.686,21.4223 225.352,25.089 230.5,29.5C 224.314,26.5777 218.648,22.911 213.5,18.5 Z"/></g>
<g><path style="opacity:0.482" fill="#a43641" d="M 230.5,29.5 C 242.111,36.6445 253.778,43.8112 265.5,51C 268.147,53.8012 270.147,56.9679 271.5,60.5C 268.577,58.7427 266.577,56.2427 265.5,53C 257.617,47.6101 249.617,42.4434 241.5,37.5C 237.618,35.0659 233.952,32.3993 230.5,29.5 Z"/></g>
<g><path style="opacity:1" fill="#bd1515" d="M 241.5,37.5 C 249.617,42.4434 257.617,47.6101 265.5,53C 266.577,56.2427 268.577,58.7427 271.5,60.5C 276.997,68.1555 281.997,76.1555 286.5,84.5C 282.17,80.5885 277.17,77.5885 271.5,75.5C 268.587,71.9094 264.921,69.5761 260.5,68.5C 258.677,72.2917 259.344,75.9584 262.5,79.5C 262.167,79.8333 261.833,80.1667 261.5,80.5C 257.833,77.3333 254.167,74.1667 250.5,71C 251.308,70.6924 251.975,70.1924 252.5,69.5C 251.271,68.7189 249.938,68.2189 248.5,68C 248.957,67.586 249.291,67.086 249.5,66.5C 245.604,59.577 241.771,52.577 238,45.5C 237.219,44.0563 237.386,42.723 238.5,41.5C 240.844,42.3372 242.844,43.6706 244.5,45.5C 244.833,45.1667 245.167,44.8333 245.5,44.5C 243.266,42.6187 241.933,40.2853 241.5,37.5 Z"/></g>
<g><path style="opacity:1" fill="#8f191d" d="M 194.5,24.5 C 194.833,24.5 195.167,24.5 195.5,24.5C 195.5,36.8333 195.5,49.1667 195.5,61.5C 194.03,75.7884 193.363,90.1217 193.5,104.5C 192.834,100.347 192.501,96.0134 192.5,91.5C 193.219,69.1658 193.886,46.8325 194.5,24.5 Z"/></g>
<g><path style="opacity:1" fill="#d31213" d="M 207.5,14.5 C 208.802,16.8218 210.802,18.1551 213.5,18.5C 218.648,22.911 224.314,26.5777 230.5,29.5C 233.952,32.3993 237.618,35.0659 241.5,37.5C 241.933,40.2853 243.266,42.6187 245.5,44.5C 245.167,44.8333 244.833,45.1667 244.5,45.5C 242.844,43.6706 240.844,42.3372 238.5,41.5C 237.386,42.723 237.219,44.0563 238,45.5C 241.771,52.577 245.604,59.577 249.5,66.5C 249.291,67.086 248.957,67.586 248.5,68C 249.938,68.2189 251.271,68.7189 252.5,69.5C 251.975,70.1924 251.308,70.6924 250.5,71C 254.167,74.1667 257.833,77.3333 261.5,80.5C 261.833,80.1667 262.167,79.8333 262.5,79.5C 259.344,75.9584 258.677,72.2917 260.5,68.5C 264.921,69.5761 268.587,71.9094 271.5,75.5C 277.17,77.5885 282.17,80.5885 286.5,84.5C 292.332,92.8241 297.665,101.491 302.5,110.5C 302.657,111.873 302.49,113.207 302,114.5C 301.282,113.549 300.449,113.383 299.5,114C 299.576,117.001 298.409,117.167 296,114.5C 295.333,115.167 295.333,115.833 296,116.5C 298.167,118 300,119.833 301.5,122C 302.449,122.617 303.282,122.451 304,121.5C 305.667,123.5 307.333,125.5 309,127.5C 310.364,126.742 311.531,127.242 312.5,129C 310.017,129.17 307.851,128.336 306,126.5C 305.667,126.833 305.333,127.167 305,127.5C 297.714,120.784 296.881,121.618 302.5,130C 298.85,129.836 298.017,131.003 300,133.5C 303.91,136.064 307.577,139.064 311,142.5C 310.553,139.15 308.72,136.65 305.5,135C 306.833,135 308.167,135 309.5,135C 308.465,133.493 308.632,131.993 310,130.5C 312.39,132.267 314.057,134.6 315,137.5C 316.011,136.663 317.178,136.33 318.5,136.5C 318.719,137.675 318.386,138.675 317.5,139.5C 316.391,138.41 315.391,138.41 314.5,139.5C 315.5,140.5 316.5,141.5 317.5,142.5C 318.086,142.291 318.586,141.957 319,141.5C 322.282,145.759 325.782,149.759 329.5,153.5C 329.536,157.2 331.203,159.867 334.5,161.5C 334.88,164.745 336.047,167.745 338,170.5C 338.671,171.252 339.504,171.586 340.5,171.5C 341.338,171.842 341.672,172.508 341.5,173.5C 341.611,174.117 341.944,174.617 342.5,175C 340.292,175.191 338.292,175.691 336.5,176.5C 332.481,176.646 328.481,176.979 324.5,177.5C 322.372,176.371 320.039,176.204 317.5,177C 310.166,178.981 303.499,182.148 297.5,186.5C 292.811,181.297 288.644,175.63 285,169.5C 283.667,172.833 282.333,176.167 281,179.5C 279.265,175.087 280.099,171.087 283.5,167.5C 272.994,147.149 261.994,127.149 250.5,107.5C 247.072,100.308 243.405,93.3078 239.5,86.5C 228.238,66.5405 217.071,46.5405 206,26.5C 205.464,28.5672 205.964,30.4006 207.5,32C 206.703,35.7454 206.203,39.5787 206,43.5C 205.784,41.6161 205.117,39.9494 204,38.5C 203.959,31.9956 203.292,25.6622 202,19.5C 202.609,28.7551 202.609,38.0884 202,47.5C 201.08,44.8987 200.413,42.2321 200,39.5C 196.153,44.9396 195.653,50.6063 198.5,56.5C 199.321,53.5535 199.821,50.5535 200,47.5C 200.667,52.1667 200.667,56.8333 200,61.5C 199.667,60.8333 199.333,60.1667 199,59.5C 199.104,64.816 197.937,65.4826 195.5,61.5C 195.5,49.1667 195.5,36.8333 195.5,24.5C 195.523,19.1259 196.023,13.7926 197,8.5C 200.311,10.9031 203.811,12.9031 207.5,14.5 Z"/></g>
<g><path style="opacity:1" fill="#b61213" d="M 239.5,86.5 C 239.307,90.007 239.973,93.3404 241.5,96.5C 240.317,102.567 238.817,108.567 237,114.5C 237.726,106.945 237.393,99.2781 236,91.5C 235.333,90.1667 234.667,88.8333 234,87.5C 232.621,92.036 232.121,96.7027 232.5,101.5C 231.5,101.5 230.5,101.5 229.5,101.5C 228.226,95.2343 227.226,88.901 226.5,82.5C 225.676,85.7848 225.176,89.1182 225,92.5C 224.362,91.3914 223.862,90.2247 223.5,89C 224.167,85.6667 224.833,82.3333 225.5,79C 225.138,77.7753 224.638,76.6086 224,75.5C 222.756,78.6382 222.089,81.9716 222,85.5C 219.277,82.4432 216.944,79.1099 215,75.5C 214.929,77.1092 215.096,78.7759 215.5,80.5C 215.523,82.0666 215.023,83.3999 214,84.5C 212.501,81.028 212.334,77.528 213.5,74C 212.804,72.1072 211.97,70.2738 211,68.5C 211.17,74.696 210.837,81.0293 210,87.5C 208.902,84.4174 208.068,81.2507 207.5,78C 209.28,70.5296 208.447,63.3629 205,56.5C 206.348,63.7524 206.848,71.0857 206.5,78.5C 206.333,79.8333 206.167,81.1667 206,82.5C 205.111,81.1118 204.611,81.2785 204.5,83C 205.753,88.8982 205.42,94.7316 203.5,100.5C 202.087,98.6317 200.92,96.6317 200,94.5C 199.13,95.1079 198.63,95.9412 198.5,97C 199.231,101.879 199.397,107.046 199,112.5C 199.974,114.878 200.641,114.544 201,111.5C 201.936,115.114 202.436,118.78 202.5,122.5C 199.508,116.544 196.508,110.544 193.5,104.5C 193.363,90.1217 194.03,75.7884 195.5,61.5C 197.937,65.4826 199.104,64.816 199,59.5C 199.333,60.1667 199.667,60.8333 200,61.5C 200.667,56.8333 200.667,52.1667 200,47.5C 199.821,50.5535 199.321,53.5535 198.5,56.5C 195.653,50.6063 196.153,44.9396 200,39.5C 200.413,42.2321 201.08,44.8987 202,47.5C 202.609,38.0884 202.609,28.7551 202,19.5C 203.292,25.6622 203.959,31.9956 204,38.5C 205.117,39.9494 205.784,41.6161 206,43.5C 206.203,39.5787 206.703,35.7454 207.5,32C 205.964,30.4006 205.464,28.5672 206,26.5C 217.071,46.5405 228.238,66.5405 239.5,86.5 Z"/></g>
<g><path style="opacity:0.162" fill="#000000" d="M 427.5,108.5 C 416.167,121.833 404.833,135.167 393.5,148.5C 388.49,153.512 383.823,158.845 379.5,164.5C 376.097,166.9 373.43,169.9 371.5,173.5C 370.167,174.167 369.167,175.167 368.5,176.5C 359.574,174.907 350.574,173.907 341.5,173.5C 341.672,172.508 341.338,171.842 340.5,171.5C 339.601,168.605 338.267,165.938 336.5,163.5C 355.264,142.23 374.264,121.063 393.5,100C 403.152,96.0678 412.818,96.4012 422.5,101C 425.2,102.857 426.866,105.357 427.5,108.5 Z"/></g>
<g><path style="opacity:1" fill="#cb1213" d="M 229.5,101.5 C 231.52,105.048 232.52,108.881 232.5,113C 230.903,120.87 229.569,129.536 228.5,139C 228.645,139.772 228.978,140.439 229.5,141C 227.184,143.152 226.85,145.652 228.5,148.5C 228.154,149.696 227.654,149.696 227,148.5C 226.185,146.377 225.185,144.377 224,142.5C 223.693,148.416 223.526,154.416 223.5,160.5C 222.808,159.975 222.308,159.308 222,158.5C 221.899,151.353 220.899,144.353 219,137.5C 217.441,139.217 216.608,141.217 216.5,143.5C 215.5,143.5 214.5,143.5 213.5,143.5C 209.472,136.774 205.806,129.774 202.5,122.5C 202.436,118.78 201.936,115.114 201,111.5C 200.641,114.544 199.974,114.878 199,112.5C 199.397,107.046 199.231,101.879 198.5,97C 198.63,95.9412 199.13,95.1079 200,94.5C 200.92,96.6317 202.087,98.6317 203.5,100.5C 205.42,94.7316 205.753,88.8982 204.5,83C 204.611,81.2785 205.111,81.1118 206,82.5C 206.167,81.1667 206.333,79.8333 206.5,78.5C 206.848,71.0857 206.348,63.7524 205,56.5C 208.447,63.3629 209.28,70.5296 207.5,78C 208.068,81.2507 208.902,84.4174 210,87.5C 210.837,81.0293 211.17,74.696 211,68.5C 211.97,70.2738 212.804,72.1072 213.5,74C 212.334,77.528 212.501,81.028 214,84.5C 215.023,83.3999 215.523,82.0666 215.5,80.5C 215.096,78.7759 214.929,77.1092 215,75.5C 216.944,79.1099 219.277,82.4432 222,85.5C 222.089,81.9716 222.756,78.6382 224,75.5C 224.638,76.6086 225.138,77.7753 225.5,79C 224.833,82.3333 224.167,85.6667 223.5,89C 223.862,90.2247 224.362,91.3914 225,92.5C 225.176,89.1182 225.676,85.7848 226.5,82.5C 227.226,88.901 228.226,95.2343 229.5,101.5 Z"/></g>
<g><path style="opacity:0.576" fill="#941721" d="M 444.5,115.5 C 444.859,113.629 445.859,112.129 447.5,111C 441.344,108.903 435.01,108.07 428.5,108.5C 428.856,107.13 429.69,106.13 431,105.5C 437.032,107.384 443.199,108.384 449.5,108.5C 449.031,111.643 447.364,113.977 444.5,115.5 Z"/></g>
<g><path style="opacity:1" fill="#c01314" d="M 427.5,108.5 C 427.833,108.5 428.167,108.5 428.5,108.5C 435.01,108.07 441.344,108.903 447.5,111C 445.859,112.129 444.859,113.629 444.5,115.5C 444.167,116.167 443.833,116.833 443.5,117.5C 442.252,118.334 441.585,119.667 441.5,121.5C 441.667,122.833 441.833,124.167 442,125.5C 442.667,124.167 443.333,124.167 444,125.5C 445.859,128.564 447.692,131.564 449.5,134.5C 450.222,134.918 450.722,135.584 451,136.5C 452.176,134.804 453.343,133.138 454.5,131.5C 455.837,130.685 456.837,129.518 457.5,128C 458.167,127.333 458.833,127.333 459.5,128C 461.918,132.668 463.918,137.501 465.5,142.5C 465.222,144.346 465.889,145.68 467.5,146.5C 470.753,145.479 473.586,143.812 476,141.5C 478.46,147.458 482.793,151.124 489,152.5C 490.03,152.836 490.53,153.503 490.5,154.5C 488.413,158.344 486.08,162.011 483.5,165.5C 484.999,161.64 483.999,158.473 480.5,156C 481.5,155.167 482.5,154.333 483.5,153.5C 479.414,151.567 475.247,149.9 471,148.5C 469.019,149.65 467.186,150.984 465.5,152.5C 458.675,151.079 452.009,149.912 445.5,149C 444.633,146.684 445.299,144.684 447.5,143C 444.526,142.007 441.526,141.174 438.5,140.5C 434.392,136.969 432.558,132.636 433,127.5C 432.667,127.833 432.333,128.167 432,128.5C 430.414,127.624 428.914,126.624 427.5,125.5C 424.223,126.254 420.89,126.754 417.5,127C 416.735,129.794 415.068,132.461 412.5,135C 413.833,136 413.833,137 412.5,138C 408.016,139.414 403.682,141.081 399.5,143C 397.475,144.194 397.141,145.694 398.5,147.5C 397.091,149.626 395.424,149.96 393.5,148.5C 404.833,135.167 416.167,121.833 427.5,108.5 Z"/></g>
<g><path style="opacity:1" fill="#b01011" d="M 250.5,107.5 C 261.994,127.149 272.994,147.149 283.5,167.5C 280.099,171.087 279.265,175.087 281,179.5C 282.333,176.167 283.667,172.833 285,169.5C 288.644,175.63 292.811,181.297 297.5,186.5C 297.833,187.167 298.167,187.833 298.5,188.5C 298.167,188.5 297.833,188.5 297.5,188.5C 296.85,188.196 296.183,187.863 295.5,187.5C 293.167,189 290.833,190.5 288.5,192C 282.303,197.031 276.636,202.531 271.5,208.5C 268.836,204.984 265.503,202.15 261.5,200C 261.957,199.586 262.291,199.086 262.5,198.5C 261.494,195.99 260.161,193.656 258.5,191.5C 257.619,194.853 255.953,195.353 253.5,193C 250.909,190.643 249.242,187.809 248.5,184.5C 246.011,184.702 243.677,184.202 241.5,183C 241.833,182.667 242.167,182.333 242.5,182C 240.939,181.682 239.772,180.849 239,179.5C 237.732,179.616 236.398,179.949 235,180.5C 234.833,180.167 234.667,179.833 234.5,179.5C 236.045,178.548 237.712,178.215 239.5,178.5C 239.5,176.833 239.5,175.167 239.5,173.5C 240.338,173.842 240.672,174.508 240.5,175.5C 240.5,176.5 240.5,177.5 240.5,178.5C 250.902,178.856 260.235,182.189 268.5,188.5C 271.619,180.733 275.619,173.4 280.5,166.5C 279.333,164.167 278.167,161.833 277,159.5C 275.667,158.167 274.333,158.167 273,159.5C 272.692,158.692 272.192,158.025 271.5,157.5C 268.744,159.091 266.911,161.424 266,164.5C 264.667,159.833 263.333,155.167 262,150.5C 261.248,153.894 261.415,157.227 262.5,160.5C 262.333,160.833 262.167,161.167 262,161.5C 261.085,160.672 260.419,159.672 260,158.5C 259.667,160.5 259.333,162.5 259,164.5C 259.474,158.154 257.807,152.488 254,147.5C 254.363,151.947 255.196,156.28 256.5,160.5C 255.883,160.389 255.383,160.056 255,159.5C 254.667,160.833 254.333,162.167 254,163.5C 253.654,160.424 252.988,157.424 252,154.5C 250.605,155.815 249.605,155.481 249,153.5C 246.809,145.195 245.309,136.695 244.5,128C 247.326,121.343 249.326,114.51 250.5,107.5 Z"/></g>
<g><path style="opacity:1" fill="#cd1c1b" d="M 302.5,110.5 C 312.247,124.32 321.247,138.653 329.5,153.5C 325.782,149.759 322.282,145.759 319,141.5C 318.586,141.957 318.086,142.291 317.5,142.5C 316.5,141.5 315.5,140.5 314.5,139.5C 315.391,138.41 316.391,138.41 317.5,139.5C 318.386,138.675 318.719,137.675 318.5,136.5C 317.178,136.33 316.011,136.663 315,137.5C 314.057,134.6 312.39,132.267 310,130.5C 308.632,131.993 308.465,133.493 309.5,135C 308.167,135 306.833,135 305.5,135C 308.72,136.65 310.553,139.15 311,142.5C 307.577,139.064 303.91,136.064 300,133.5C 298.017,131.003 298.85,129.836 302.5,130C 296.881,121.618 297.714,120.784 305,127.5C 305.333,127.167 305.667,126.833 306,126.5C 307.851,128.336 310.017,129.17 312.5,129C 311.531,127.242 310.364,126.742 309,127.5C 307.333,125.5 305.667,123.5 304,121.5C 303.282,122.451 302.449,122.617 301.5,122C 300,119.833 298.167,118 296,116.5C 295.333,115.833 295.333,115.167 296,114.5C 298.409,117.167 299.576,117.001 299.5,114C 300.449,113.383 301.282,113.549 302,114.5C 302.49,113.207 302.657,111.873 302.5,110.5 Z"/></g>
<g><path style="opacity:1" fill="#a52429" d="M 443.5,117.5 C 443.931,121.735 445.598,125.735 448.5,129.5C 449.038,131.117 449.371,132.784 449.5,134.5C 447.692,131.564 445.859,128.564 444,125.5C 443.333,124.167 442.667,124.167 442,125.5C 441.833,124.167 441.667,122.833 441.5,121.5C 441.585,119.667 442.252,118.334 443.5,117.5 Z"/></g>
<g><path style="opacity:0.008" fill="#000000" d="M 448.5,129.5 C 450.579,129.971 452.579,130.637 454.5,131.5C 453.343,133.138 452.176,134.804 451,136.5C 450.722,135.584 450.222,134.918 449.5,134.5C 449.371,132.784 449.038,131.117 448.5,129.5 Z"/></g>
<g><path style="opacity:1" fill="#be1213" d="M 239.5,86.5 C 243.405,93.3078 247.072,100.308 250.5,107.5C 249.326,114.51 247.326,121.343 244.5,128C 245.309,136.695 246.809,145.195 249,153.5C 249.605,155.481 250.605,155.815 252,154.5C 252.988,157.424 253.654,160.424 254,163.5C 254.333,162.167 254.667,160.833 255,159.5C 255.383,160.056 255.883,160.389 256.5,160.5C 256.068,164.099 254.902,167.432 253,170.5C 252.609,165.934 251.442,161.601 249.5,157.5C 249.167,158 248.833,158.5 248.5,159C 250.99,163.367 250.823,167.534 248,171.5C 245.568,154.34 243.901,154.674 243,172.5C 242.148,173.571 241.315,174.571 240.5,175.5C 240.672,174.508 240.338,173.842 239.5,173.5C 238.356,171.9 237.189,170.233 236,168.5C 235.667,169.167 235.333,169.833 235,170.5C 234.812,166.123 233.479,162.123 231,158.5C 231.723,165.804 231.556,173.137 230.5,180.5C 228.382,181.946 226.049,182.613 223.5,182.5C 225.762,181.177 228.096,179.843 230.5,178.5C 224.55,166.934 218.883,155.267 213.5,143.5C 214.5,143.5 215.5,143.5 216.5,143.5C 216.608,141.217 217.441,139.217 219,137.5C 220.899,144.353 221.899,151.353 222,158.5C 222.308,159.308 222.808,159.975 223.5,160.5C 223.526,154.416 223.693,148.416 224,142.5C 225.185,144.377 226.185,146.377 227,148.5C 227.654,149.696 228.154,149.696 228.5,148.5C 226.85,145.652 227.184,143.152 229.5,141C 228.978,140.439 228.645,139.772 228.5,139C 229.569,129.536 230.903,120.87 232.5,113C 232.52,108.881 231.52,105.048 229.5,101.5C 230.5,101.5 231.5,101.5 232.5,101.5C 232.121,96.7027 232.621,92.036 234,87.5C 234.667,88.8333 235.333,90.1667 236,91.5C 237.393,99.2781 237.726,106.945 237,114.5C 238.817,108.567 240.317,102.567 241.5,96.5C 239.973,93.3404 239.307,90.007 239.5,86.5 Z"/></g>
<g><path style="opacity:1" fill="#d41213" d="M 438.5,140.5 C 437.542,140.953 436.708,141.619 436,142.5C 434.833,140.833 433.667,139.167 432.5,137.5C 431.833,138.833 431.167,140.167 430.5,141.5C 428.314,137.602 426.148,137.602 424,141.5C 423.51,142.793 423.343,144.127 423.5,145.5C 422.5,145.5 421.5,145.5 420.5,145.5C 420.5,146.5 420.5,147.5 420.5,148.5C 426.64,149.91 432.807,151.243 439,152.5C 440.767,151.66 442.101,150.327 443,148.5C 442.621,150.075 442.788,151.575 443.5,153C 449.845,154.501 456.179,156.001 462.5,157.5C 463.952,156.06 464.952,154.394 465.5,152.5C 467.186,150.984 469.019,149.65 471,148.5C 475.247,149.9 479.414,151.567 483.5,153.5C 482.5,154.333 481.5,155.167 480.5,156C 483.999,158.473 484.999,161.64 483.5,165.5C 471.527,185.149 459.527,204.816 447.5,224.5C 445.716,224.107 444.05,223.441 442.5,222.5C 421.993,200.405 396.993,185.738 367.5,178.5C 367.833,177.833 368.167,177.167 368.5,176.5C 369.167,175.167 370.167,174.167 371.5,173.5C 374.903,171.1 377.57,168.1 379.5,164.5C 383.823,158.845 388.49,153.512 393.5,148.5C 395.424,149.96 397.091,149.626 398.5,147.5C 397.141,145.694 397.475,144.194 399.5,143C 403.682,141.081 408.016,139.414 412.5,138C 413.833,137 413.833,136 412.5,135C 415.068,132.461 416.735,129.794 417.5,127C 420.89,126.754 424.223,126.254 427.5,125.5C 428.914,126.624 430.414,127.624 432,128.5C 432.333,128.167 432.667,127.833 433,127.5C 432.558,132.636 434.392,136.969 438.5,140.5 Z"/></g>
<g><path style="opacity:1" fill="#9b0a0b" d="M 438.5,140.5 C 441.526,141.174 444.526,142.007 447.5,143C 445.299,144.684 444.633,146.684 445.5,149C 452.009,149.912 458.675,151.079 465.5,152.5C 464.952,154.394 463.952,156.06 462.5,157.5C 456.179,156.001 449.845,154.501 443.5,153C 442.788,151.575 442.621,150.075 443,148.5C 442.101,150.327 440.767,151.66 439,152.5C 432.807,151.243 426.64,149.91 420.5,148.5C 420.5,147.5 420.5,146.5 420.5,145.5C 421.5,145.5 422.5,145.5 423.5,145.5C 423.343,144.127 423.51,142.793 424,141.5C 426.148,137.602 428.314,137.602 430.5,141.5C 431.167,140.167 431.833,138.833 432.5,137.5C 433.667,139.167 434.833,140.833 436,142.5C 436.708,141.619 437.542,140.953 438.5,140.5 Z"/></g>
<g><path style="opacity:1" fill="#a11e22" d="M 490.5,154.5 C 490.53,153.503 490.03,152.836 489,152.5C 482.793,151.124 478.46,147.458 476,141.5C 473.586,143.812 470.753,145.479 467.5,146.5C 465.889,145.68 465.222,144.346 465.5,142.5C 467.079,144.646 469.079,144.812 471.5,143C 472.975,140.691 474.642,138.524 476.5,136.5C 478.773,139.846 480.607,143.512 482,147.5C 484.557,149.189 487.391,150.356 490.5,151C 491.791,152.292 491.791,153.458 490.5,154.5 Z"/></g>
<g><path style="opacity:1" fill="#c13938" d="M 329.5,153.5 C 331.664,155.822 333.331,158.489 334.5,161.5C 331.203,159.867 329.536,157.2 329.5,153.5 Z"/></g>
<g><path style="opacity:1" fill="#b33533" d="M 334.5,161.5 C 335.5,161.833 336.167,162.5 336.5,163.5C 338.267,165.938 339.601,168.605 340.5,171.5C 339.504,171.586 338.671,171.252 338,170.5C 336.047,167.745 334.88,164.745 334.5,161.5 Z"/></g>
<g><path style="opacity:1" fill="#a62a28" d="M 379.5,164.5 C 377.57,168.1 374.903,171.1 371.5,173.5C 373.43,169.9 376.097,166.9 379.5,164.5 Z"/></g>
<g><path style="opacity:1" fill="#d01213" d="M 240.5,175.5 C 241.315,174.571 242.148,173.571 243,172.5C 243.901,154.674 245.568,154.34 248,171.5C 250.823,167.534 250.99,163.367 248.5,159C 248.833,158.5 249.167,158 249.5,157.5C 251.442,161.601 252.609,165.934 253,170.5C 254.902,167.432 256.068,164.099 256.5,160.5C 255.196,156.28 254.363,151.947 254,147.5C 257.807,152.488 259.474,158.154 259,164.5C 259.333,162.5 259.667,160.5 260,158.5C 260.419,159.672 261.085,160.672 262,161.5C 262.167,161.167 262.333,160.833 262.5,160.5C 261.415,157.227 261.248,153.894 262,150.5C 263.333,155.167 264.667,159.833 266,164.5C 266.911,161.424 268.744,159.091 271.5,157.5C 272.192,158.025 272.692,158.692 273,159.5C 274.333,158.167 275.667,158.167 277,159.5C 278.167,161.833 279.333,164.167 280.5,166.5C 275.619,173.4 271.619,180.733 268.5,188.5C 260.235,182.189 250.902,178.856 240.5,178.5C 240.5,177.5 240.5,176.5 240.5,175.5 Z"/></g>
<g><path style="opacity:0.761" fill="#862225" d="M 341.5,173.5 C 350.574,173.907 359.574,174.907 368.5,176.5C 368.167,177.167 367.833,177.833 367.5,178.5C 357.248,176.821 346.914,176.154 336.5,176.5C 338.292,175.691 340.292,175.191 342.5,175C 341.944,174.617 341.611,174.117 341.5,173.5 Z"/></g>
<g><path style="opacity:1" fill="#cd1313" d="M 239.5,173.5 C 239.5,175.167 239.5,176.833 239.5,178.5C 237.712,178.215 236.045,178.548 234.5,179.5C 234.667,179.833 234.833,180.167 235,180.5C 236.398,179.949 237.732,179.616 239,179.5C 239.772,180.849 240.939,181.682 242.5,182C 242.167,182.333 241.833,182.667 241.5,183C 243.677,184.202 246.011,184.702 248.5,184.5C 249.242,187.809 250.909,190.643 253.5,193C 255.953,195.353 257.619,194.853 258.5,191.5C 260.161,193.656 261.494,195.99 262.5,198.5C 262.291,199.086 261.957,199.586 261.5,200C 265.503,202.15 268.836,204.984 271.5,208.5C 268.827,211.506 266.16,214.506 263.5,217.5C 262.751,215.988 261.584,214.988 260,214.5C 257.671,215.146 255.671,215.146 254,214.5C 253.5,213.333 252.667,212.5 251.5,212C 252.167,211.667 252.833,211.333 253.5,211C 251.865,210.46 250.532,210.96 249.5,212.5C 248.147,210.817 246.48,209.484 244.5,208.5C 243.914,208.709 243.414,209.043 243,209.5C 242.751,208.376 242.251,207.376 241.5,206.5C 240.304,206.846 240.304,207.346 241.5,208C 237.973,208.882 237.307,208.382 239.5,206.5C 239.167,206.167 238.833,205.833 238.5,205.5C 237.5,206.167 236.5,206.833 235.5,207.5C 234.065,205.599 232.398,205.266 230.5,206.5C 227.972,205.502 227.972,204.669 230.5,204C 229.552,203.517 228.552,203.351 227.5,203.5C 226.46,208.826 223.96,209.826 220,206.5C 216.595,207.468 216.095,208.968 218.5,211C 216.147,212.255 215.48,213.922 216.5,216C 215.92,218.525 214.92,220.025 213.5,220.5C 212.989,228.386 212.989,236.386 213.5,244.5C 210.972,242.11 209.472,239.11 209,235.5C 208.176,226.324 208.343,217.324 209.5,208.5C 210.422,199.317 214.089,191.317 220.5,184.5C 220.973,183.094 221.973,182.427 223.5,182.5C 226.049,182.613 228.382,181.946 230.5,180.5C 231.556,173.137 231.723,165.804 231,158.5C 233.479,162.123 234.812,166.123 235,170.5C 235.333,169.833 235.667,169.167 236,168.5C 237.189,170.233 238.356,171.9 239.5,173.5 Z"/></g>
<g><path style="opacity:1" fill="#383838" d="M 314.5,180.5 C 317.736,183.201 321.402,185.368 325.5,187C 327.041,188.371 328.375,189.871 329.5,191.5C 325.609,193.211 321.942,195.211 318.5,197.5C 314.655,195.412 310.655,193.579 306.5,192C 305.382,190.926 304.382,189.76 303.5,188.5C 302.893,188.624 302.56,188.957 302.5,189.5C 300.668,188.86 300.335,187.86 301.5,186.5C 305.455,183.735 309.788,181.735 314.5,180.5 Z"/></g>
<g><path style="opacity:1" fill="#d51213" d="M 297.5,188.5 C 297.5,189.167 297.5,189.833 297.5,190.5C 297.205,192.735 297.539,194.735 298.5,196.5C 298.551,209.196 301.884,220.863 308.5,231.5C 309.524,232.853 310.857,233.52 312.5,233.5C 312.337,235.857 312.503,238.19 313,240.5C 316.065,243.062 318.565,246.062 320.5,249.5C 320.167,250.167 319.833,250.833 319.5,251.5C 324.614,254.723 329.947,257.39 335.5,259.5C 336.813,262.702 338.479,265.869 340.5,269C 343.22,269.723 345.387,271.223 347,273.5C 348.299,273.034 349.799,273.034 351.5,273.5C 351.262,277.099 352.262,277.433 354.5,274.5C 354.296,275.529 354.796,276.529 356,277.5C 357,276.167 358,276.167 359,277.5C 359.779,276.272 360.779,275.272 362,274.5C 364.547,276.177 367.38,276.844 370.5,276.5C 370.351,277.552 370.517,278.552 371,279.5C 372.572,277.437 374.405,276.771 376.5,277.5C 383.079,273.945 390.079,271.445 397.5,270C 399.462,267.687 401.795,265.853 404.5,264.5C 404.833,264.5 405.167,264.5 405.5,264.5C 406.708,265.782 408.042,265.782 409.5,264.5C 408.691,262.929 408.357,261.262 408.5,259.5C 411.5,259.5 414.5,259.5 417.5,259.5C 417.5,258.167 417.5,256.833 417.5,255.5C 422.287,254.631 426.953,253.131 431.5,251C 427.371,246.492 428.705,244.492 435.5,245C 435.833,244.667 436.167,244.333 436.5,244C 435.552,243.517 434.552,243.351 433.5,243.5C 433.119,241.058 433.786,240.391 435.5,241.5C 436.452,239.955 436.785,238.288 436.5,236.5C 439.585,236.458 441.919,235.125 443.5,232.5C 442.8,232.213 442.133,231.88 441.5,231.5C 442.5,230.167 443.5,228.833 444.5,227.5C 445.5,227.5 446.5,227.5 447.5,227.5C 447.859,229.371 448.859,230.871 450.5,232C 453.432,232.953 456.432,233.453 459.5,233.5C 463.505,234.498 466.839,236.498 469.5,239.5C 471.167,241.833 473.167,243.833 475.5,245.5C 476.08,247.749 477.413,249.415 479.5,250.5C 484.062,257.782 485.562,265.782 484,274.5C 483.208,276.587 482.041,278.421 480.5,280C 514.278,338.073 547.611,396.24 580.5,454.5C 578.777,453.928 577.277,453.928 576,454.5C 573.906,456.969 573.406,459.636 574.5,462.5C 573.833,462.833 573.167,463.167 572.5,463.5C 573.428,464.768 573.595,466.101 573,467.5C 572.667,466.833 572.333,466.167 572,465.5C 570.961,468.013 569.628,470.347 568,472.5C 565.832,474.455 563.498,475.121 561,474.5C 557.333,475.167 553.667,475.833 550,476.5C 548.732,476.384 547.398,476.051 546,475.5C 515.92,477.193 485.753,477.859 455.5,477.5C 421.868,418.918 388.702,359.918 356,300.5C 355.586,300.043 355.086,299.709 354.5,299.5C 346.412,310.013 339.079,321.013 332.5,332.5C 300.5,379.167 268.5,425.833 236.5,472.5C 235.387,471.306 234.387,469.973 233.5,468.5C 232.41,469.391 232.41,470.391 233.5,471.5C 232.833,471.833 232.167,472.167 231.5,472.5C 231.709,473.086 232.043,473.586 232.5,474C 215.358,474.368 198.358,474.535 181.5,474.5C 179.167,474.333 176.833,474.167 174.5,474C 174,473.5 173.5,473 173,472.5C 170.544,474.321 167.711,474.988 164.5,474.5C 164.773,472.549 164.107,471.049 162.5,470C 165.213,467.227 164.546,465.394 160.5,464.5C 159.926,462.941 159.26,461.441 158.5,460C 160.087,457.01 160.92,453.51 161,449.5C 159.446,446.342 157.279,443.675 154.5,441.5C 151.482,445.387 149.148,444.887 147.5,440C 144.784,440.439 142.118,440.605 139.5,440.5C 138.572,438.665 137.406,438.332 136,439.5C 136.311,438.065 136.145,436.732 135.5,435.5C 136.076,432.876 137.41,432.209 139.5,433.5C 140.386,432.675 140.719,431.675 140.5,430.5C 137.442,431.504 134.442,432.004 131.5,432C 130.751,433.734 130.251,435.567 130,437.5C 128.89,435.603 128.724,433.77 129.5,432C 125.64,428.309 123.973,423.809 124.5,418.5C 123.5,418.5 122.5,418.5 121.5,418.5C 121.349,421.718 120.516,422.051 119,419.5C 118.43,422.844 117.264,423.177 115.5,420.5C 114.28,421.711 113.113,421.711 112,420.5C 111.506,418.866 111.34,417.199 111.5,415.5C 113.308,415.509 114.975,415.009 116.5,414C 115.133,411.699 114.466,409.199 114.5,406.5C 111.101,406.263 109.268,404.596 109,401.5C 109.451,403.929 110.285,404.096 111.5,402C 111.167,401.667 110.833,401.333 110.5,401C 111.448,400.517 112.448,400.351 113.5,400.5C 113.781,398.037 114.781,395.87 116.5,394C 116.586,390.308 117.919,389.975 120.5,393C 121.833,393.667 123.167,393.667 124.5,393C 121.046,391.046 117.712,389.213 114.5,387.5C 151.489,343.847 188.822,300.513 226.5,257.5C 232.413,250.247 238.746,243.247 245.5,236.5C 236.562,235.302 228.562,231.968 221.5,226.5C 220.599,224.273 218.933,223.273 216.5,223.5C 216.666,228.511 216.499,233.511 216,238.5C 215.998,241.051 215.164,243.051 213.5,244.5C 212.989,236.386 212.989,228.386 213.5,220.5C 214.92,220.025 215.92,218.525 216.5,216C 215.48,213.922 216.147,212.255 218.5,211C 216.095,208.968 216.595,207.468 220,206.5C 223.96,209.826 226.46,208.826 227.5,203.5C 228.552,203.351 229.552,203.517 230.5,204C 227.972,204.669 227.972,205.502 230.5,206.5C 232.398,205.266 234.065,205.599 235.5,207.5C 236.5,206.833 237.5,206.167 238.5,205.5C 238.833,205.833 239.167,206.167 239.5,206.5C 237.307,208.382 237.973,208.882 241.5,208C 240.304,207.346 240.304,206.846 241.5,206.5C 242.251,207.376 242.751,208.376 243,209.5C 243.414,209.043 243.914,208.709 244.5,208.5C 246.48,209.484 248.147,210.817 249.5,212.5C 250.532,210.96 251.865,210.46 253.5,211C 252.833,211.333 252.167,211.667 251.5,212C 252.667,212.5 253.5,213.333 254,214.5C 255.671,215.146 257.671,215.146 260,214.5C 261.584,214.988 262.751,215.988 263.5,217.5C 266.16,214.506 268.827,211.506 271.5,208.5C 276.636,202.531 282.303,197.031 288.5,192C 290.833,190.5 293.167,189 295.5,187.5C 296.183,187.863 296.85,188.196 297.5,188.5 Z"/></g>
<g><path style="opacity:1" fill="#0e0e0e" d="M 336.5,176.5 C 346.914,176.154 357.248,176.821 367.5,178.5C 396.993,185.738 421.993,200.405 442.5,222.5C 442.5,223.167 442.5,223.833 442.5,224.5C 436.898,223.436 431.231,223.436 425.5,224.5C 420.005,223.63 418.838,221.296 422,217.5C 422.535,219.271 423.369,219.604 424.5,218.5C 424.08,216.674 424.08,214.674 424.5,212.5C 420.601,211.634 416.601,211.634 412.5,212.5C 397.693,212.629 383.026,210.629 368.5,206.5C 359.864,203.399 350.864,200.399 341.5,197.5C 339.141,196.663 337.141,195.163 335.5,193C 333.564,192.187 331.564,191.687 329.5,191.5C 328.375,189.871 327.041,188.371 325.5,187C 321.402,185.368 317.736,183.201 314.5,180.5C 317.871,179.284 321.205,178.284 324.5,177.5C 328.481,176.979 332.481,176.646 336.5,176.5 Z"/></g>
<g><path style="opacity:1" fill="#565554" d="M 329.5,191.5 C 331.564,191.687 333.564,192.187 335.5,193C 337.141,195.163 339.141,196.663 341.5,197.5C 338.729,197.421 336.063,197.921 333.5,199C 332.833,201 331.5,202.333 329.5,203C 330.416,203.278 331.082,203.778 331.5,204.5C 329.669,203.948 328.003,203.948 326.5,204.5C 327.5,205.167 328.5,205.833 329.5,206.5C 328.167,207.5 328.167,208.5 329.5,209.5C 329.043,210.298 328.376,210.631 327.5,210.5C 318.263,204.599 309.93,197.599 302.5,189.5C 302.56,188.957 302.893,188.624 303.5,188.5C 304.382,189.76 305.382,190.926 306.5,192C 310.655,193.579 314.655,195.412 318.5,197.5C 321.942,195.211 325.609,193.211 329.5,191.5 Z"/></g>
<g><path style="opacity:1" fill="#9c2626" d="M 220.5,184.5 C 214.089,191.317 210.422,199.317 209.5,208.5C 209.21,204.064 209.71,199.73 211,195.5C 212.62,190.388 215.787,186.721 220.5,184.5 Z"/></g>
<g><path style="opacity:1" fill="#636363" d="M 341.5,197.5 C 350.864,200.399 359.864,203.399 368.5,206.5C 366.143,210.299 362.81,212.965 358.5,214.5C 348.976,212.328 339.976,208.995 331.5,204.5C 331.082,203.778 330.416,203.278 329.5,203C 331.5,202.333 332.833,201 333.5,199C 336.063,197.921 338.729,197.421 341.5,197.5 Z"/></g>
<g><path style="opacity:1" fill="#c01415" d="M 324.5,177.5 C 321.205,178.284 317.871,179.284 314.5,180.5C 309.788,181.735 305.455,183.735 301.5,186.5C 300.335,187.86 300.668,188.86 302.5,189.5C 309.93,197.599 318.263,204.599 327.5,210.5C 342.628,221.107 359.294,228.44 377.5,232.5C 379.214,233.738 381.214,234.405 383.5,234.5C 382.903,235.139 382.07,235.472 381,235.5C 349.726,228.783 322.893,214.116 300.5,191.5C 299.833,190.5 299.167,189.5 298.5,188.5C 298.167,187.833 297.833,187.167 297.5,186.5C 303.499,182.148 310.166,178.981 317.5,177C 320.039,176.204 322.372,176.371 324.5,177.5 Z"/></g>
<g><path style="opacity:1" fill="#6a6a6a" d="M 357.5,215.5 C 359.576,216.427 360.743,218.093 361,220.5C 361.161,217.822 362.495,216.155 365,215.5C 366.482,217.112 368.315,218.112 370.5,218.5C 371.268,222.139 371.934,221.806 372.5,217.5C 375.718,217.651 376.051,218.484 373.5,220C 376.622,221.421 376.956,223.087 374.5,225C 375.756,225.417 376.423,226.25 376.5,227.5C 370.084,226.136 363.751,224.636 357.5,223C 352.655,221.75 348.655,219.25 345.5,215.5C 346.274,214.289 347.107,214.289 348,215.5C 348.519,214.484 349.353,213.818 350.5,213.5C 352.762,214.467 355.095,215.134 357.5,215.5 Z"/></g>
<g><path style="opacity:1" fill="#2a0402" d="M 318.5,225.5 C 317.061,223.64 315.395,221.973 313.5,220.5C 312.972,219.153 312.805,217.819 313,216.5C 315.855,219.38 317.689,222.38 318.5,225.5 Z"/></g>
<g><path style="opacity:1" fill="#555555" d="M 368.5,206.5 C 383.026,210.629 397.693,212.629 412.5,212.5C 413.174,214.024 414.174,215.358 415.5,216.5C 414.315,217.853 412.981,219.02 411.5,220C 412.167,221 412.833,222 413.5,223C 411.236,223.236 409.069,223.736 407,224.5C 407.148,223.175 406.982,222.008 406.5,221C 407.449,220.383 408.282,220.549 409,221.5C 409.402,220.128 409.902,218.795 410.5,217.5C 407.64,216.82 405.14,215.487 403,213.5C 403.311,214.935 403.145,216.268 402.5,217.5C 401.369,218.604 400.535,218.271 400,216.5C 399.5,217 399,217.5 398.5,218C 400.764,219.258 403.098,220.425 405.5,221.5C 403.833,222.167 402.167,222.833 400.5,223.5C 403.811,225.015 407.144,225.515 410.5,225C 408.604,226.065 408.437,226.898 410,227.5C 413.174,226.29 416.341,226.29 419.5,227.5C 418.019,228.48 416.685,229.647 415.5,231C 410.833,231.333 406.167,231.667 401.5,232C 399.65,234.033 398.984,234.033 399.5,232C 395.258,229.798 391.258,230.131 387.5,233C 395.805,235.027 404.138,235.86 412.5,235.5C 404.656,236.629 396.656,236.629 388.5,235.5C 387.081,234.549 385.415,234.216 383.5,234.5C 381.214,234.405 379.214,233.738 377.5,232.5C 379.144,232.286 380.644,232.62 382,233.5C 381.923,232.262 382.089,231.262 382.5,230.5C 383.216,231.311 384.05,231.978 385,232.5C 386.49,231.683 387.99,230.85 389.5,230C 385.166,229.1 380.832,228.266 376.5,227.5C 376.423,226.25 375.756,225.417 374.5,225C 376.956,223.087 376.622,221.421 373.5,220C 376.051,218.484 375.718,217.651 372.5,217.5C 371.934,221.806 371.268,222.139 370.5,218.5C 368.315,218.112 366.482,217.112 365,215.5C 362.495,216.155 361.161,217.822 361,220.5C 360.743,218.093 359.576,216.427 357.5,215.5C 358.167,215.5 358.5,215.167 358.5,214.5C 362.81,212.965 366.143,210.299 368.5,206.5 Z"/></g>
<g><path style="opacity:1" fill="#484645" d="M 331.5,204.5 C 339.976,208.995 348.976,212.328 358.5,214.5C 358.5,215.167 358.167,215.5 357.5,215.5C 355.095,215.134 352.762,214.467 350.5,213.5C 349.353,213.818 348.519,214.484 348,215.5C 347.107,214.289 346.274,214.289 345.5,215.5C 348.655,219.25 352.655,221.75 357.5,223C 363.751,224.636 370.084,226.136 376.5,227.5C 380.832,228.266 385.166,229.1 389.5,230C 387.99,230.85 386.49,231.683 385,232.5C 384.05,231.978 383.216,231.311 382.5,230.5C 382.089,231.262 381.923,232.262 382,233.5C 380.644,232.62 379.144,232.286 377.5,232.5C 359.294,228.44 342.628,221.107 327.5,210.5C 328.376,210.631 329.043,210.298 329.5,209.5C 328.167,208.5 328.167,207.5 329.5,206.5C 328.5,205.833 327.5,205.167 326.5,204.5C 328.003,203.948 329.669,203.948 331.5,204.5 Z"/></g>
<g><path style="opacity:0.894" fill="#b31f2c" d="M 447.5,227.5 C 448.962,228.458 450.295,229.624 451.5,231C 454.457,231.279 457.123,232.113 459.5,233.5C 456.432,233.453 453.432,232.953 450.5,232C 448.859,230.871 447.859,229.371 447.5,227.5 Z"/></g>
<g><path style="opacity:1" fill="#6c0607" d="M 300.5,191.5 C 322.893,214.116 349.726,228.783 381,235.5C 382.07,235.472 382.903,235.139 383.5,234.5C 385.415,234.216 387.081,234.549 388.5,235.5C 387.127,235.343 385.793,235.51 384.5,236C 402.602,240.343 420.269,239.01 437.5,232C 439.759,230.285 441.926,228.452 444,226.5C 444.399,226.728 444.565,227.062 444.5,227.5C 443.5,228.833 442.5,230.167 441.5,231.5C 437.175,235.456 432.841,239.456 428.5,243.5C 426.716,243.893 425.05,244.559 423.5,245.5C 424.475,243.807 425.808,242.307 427.5,241C 426.004,240.493 424.837,240.993 424,242.5C 417.573,242.007 411.74,241.674 406.5,241.5C 406.26,242.837 405.76,244.503 405,246.5C 404.147,244.875 403.147,244.542 402,245.5C 400.69,243.868 400.19,242.201 400.5,240.5C 399.066,242.22 398.233,244.22 398,246.5C 395.929,243.584 394.595,243.918 394,247.5C 393.085,246.672 392.419,245.672 392,244.5C 391.25,245.126 390.416,245.626 389.5,246C 390.672,246.419 391.672,247.085 392.5,248C 391.069,248.465 389.903,249.299 389,250.5C 388.431,246.639 387.598,246.639 386.5,250.5C 385.833,249.5 385.167,248.5 384.5,247.5C 383.494,247.938 383.494,248.604 384.5,249.5C 380.839,250.358 379.005,248.692 379,244.5C 377.333,244.833 375.667,245.167 374,245.5C 374.006,243.702 374.339,242.035 375,240.5C 373.644,241.38 372.144,241.714 370.5,241.5C 370.762,242.978 370.429,244.311 369.5,245.5C 369.46,243.379 368.96,241.379 368,239.5C 364.39,242.603 363.556,246.103 365.5,250C 365,250.5 364.5,251 364,251.5C 362.493,250.495 361.327,249.162 360.5,247.5C 359.604,248.506 358.938,248.506 358.5,247.5C 360.162,246.673 361.495,245.507 362.5,244C 361.551,243.383 360.718,243.549 360,244.5C 359.626,243.584 359.126,242.75 358.5,242C 356.5,241.667 354.5,241.333 352.5,241C 352.833,240.667 353.167,240.333 353.5,240C 352.333,239.5 351.5,238.667 351,237.5C 350.667,238.167 350.333,238.833 350,239.5C 348.745,237.147 347.078,236.48 345,237.5C 345.167,235.558 344.167,233.891 342,232.5C 341,233.833 340,233.833 339,232.5C 338.667,233.167 338.333,233.833 338,234.5C 339.152,231.273 337.985,229.106 334.5,228C 336.264,226.331 338.264,225.164 340.5,224.5C 339.037,224.368 337.537,224.035 336,223.5C 335.055,223.905 334.388,224.572 334,225.5C 332.647,224.315 331.48,222.981 330.5,221.5C 329.035,222.609 328.035,222.109 327.5,220C 327.833,219.667 328.167,219.333 328.5,219C 326.035,218.368 324.369,216.868 323.5,214.5C 321.577,213.692 319.577,213.192 317.5,213C 316.167,212 316.167,211 317.5,210C 315.888,209.28 314.388,209.446 313,210.5C 310,206.833 307,203.167 304,199.5C 302.546,196.929 301.38,194.262 300.5,191.5 Z"/></g>
<g><path style="opacity:1" fill="#3e3e3e" d="M 442.5,224.5 C 433.913,231.699 423.913,235.366 412.5,235.5C 404.138,235.86 395.805,235.027 387.5,233C 391.258,230.131 395.258,229.798 399.5,232C 398.984,234.033 399.65,234.033 401.5,232C 406.167,231.667 410.833,231.333 415.5,231C 416.685,229.647 418.019,228.48 419.5,227.5C 416.341,226.29 413.174,226.29 410,227.5C 408.437,226.898 408.604,226.065 410.5,225C 407.144,225.515 403.811,225.015 400.5,223.5C 402.167,222.833 403.833,222.167 405.5,221.5C 403.098,220.425 400.764,219.258 398.5,218C 399,217.5 399.5,217 400,216.5C 400.535,218.271 401.369,218.604 402.5,217.5C 403.145,216.268 403.311,214.935 403,213.5C 405.14,215.487 407.64,216.82 410.5,217.5C 409.902,218.795 409.402,220.128 409,221.5C 408.282,220.549 407.449,220.383 406.5,221C 406.982,222.008 407.148,223.175 407,224.5C 409.069,223.736 411.236,223.236 413.5,223C 412.833,222 412.167,221 411.5,220C 412.981,219.02 414.315,217.853 415.5,216.5C 414.174,215.358 413.174,214.024 412.5,212.5C 416.601,211.634 420.601,211.634 424.5,212.5C 424.08,214.674 424.08,216.674 424.5,218.5C 423.369,219.604 422.535,219.271 422,217.5C 418.838,221.296 420.005,223.63 425.5,224.5C 431.231,223.436 436.898,223.436 442.5,224.5 Z"/></g>
<g><path style="opacity:1" fill="#c01414" d="M 442.5,222.5 C 444.05,223.441 445.716,224.107 447.5,224.5C 446.167,225.5 446.167,226.5 447.5,227.5C 446.5,227.5 445.5,227.5 444.5,227.5C 444.565,227.062 444.399,226.728 444,226.5C 441.926,228.452 439.759,230.285 437.5,232C 420.269,239.01 402.602,240.343 384.5,236C 385.793,235.51 387.127,235.343 388.5,235.5C 396.656,236.629 404.656,236.629 412.5,235.5C 423.913,235.366 433.913,231.699 442.5,224.5C 442.5,223.833 442.5,223.167 442.5,222.5 Z"/></g>
<g><path style="opacity:1" fill="#b61012" d="M 221.5,226.5 C 220.349,231.65 220.183,236.984 221,242.5C 221.991,241.061 223.324,240.061 225,239.5C 224.963,241.928 224.796,244.428 224.5,247C 224.431,249.907 225.431,252.24 227.5,254C 226.552,254.483 225.552,254.649 224.5,254.5C 219.559,252.558 215.892,249.225 213.5,244.5C 215.164,243.051 215.998,241.051 216,238.5C 216.499,233.511 216.666,228.511 216.5,223.5C 218.933,223.273 220.599,224.273 221.5,226.5 Z"/></g>
<g><path style="opacity:0.016" fill="#bd414b" d="M 469.5,239.5 C 472.5,240.5 474.5,242.5 475.5,245.5C 473.167,243.833 471.167,241.833 469.5,239.5 Z"/></g>
<g><path style="opacity:1" fill="#a00c0e" d="M 221.5,226.5 C 228.562,231.968 236.562,235.302 245.5,236.5C 238.746,243.247 232.413,250.247 226.5,257.5C 226.218,256.222 225.551,255.222 224.5,254.5C 225.552,254.649 226.552,254.483 227.5,254C 225.431,252.24 224.431,249.907 224.5,247C 224.796,244.428 224.963,241.928 225,239.5C 223.324,240.061 221.991,241.061 221,242.5C 220.183,236.984 220.349,231.65 221.5,226.5 Z"/></g>
<g><path style="opacity:1" fill="#b10d0d" d="M 298.5,196.5 C 304.116,208.154 309.449,220.154 314.5,232.5C 314.215,234.288 314.548,235.955 315.5,237.5C 317.071,240.579 319.237,243.245 322,245.5C 322.483,246.448 322.649,247.448 322.5,248.5C 324.39,248.297 325.89,248.963 327,250.5C 327.483,249.552 327.649,248.552 327.5,247.5C 330.957,247.96 332.623,249.96 332.5,253.5C 334.655,253.372 336.655,253.872 338.5,255C 341.917,258.746 345.917,261.746 350.5,264C 358.346,265.68 366.179,267.18 374,268.5C 378.568,267.766 383.234,267.766 388,268.5C 389.324,267.12 390.657,266.786 392,267.5C 395.464,263.506 399.63,262.506 404.5,264.5C 401.795,265.853 399.462,267.687 397.5,270C 390.079,271.445 383.079,273.945 376.5,277.5C 374.405,276.771 372.572,277.437 371,279.5C 370.517,278.552 370.351,277.552 370.5,276.5C 367.38,276.844 364.547,276.177 362,274.5C 360.779,275.272 359.779,276.272 359,277.5C 358,276.167 357,276.167 356,277.5C 354.796,276.529 354.296,275.529 354.5,274.5C 352.262,277.433 351.262,277.099 351.5,273.5C 349.799,273.034 348.299,273.034 347,273.5C 345.387,271.223 343.22,269.723 340.5,269C 338.479,265.869 336.813,262.702 335.5,259.5C 329.947,257.39 324.614,254.723 319.5,251.5C 319.833,250.833 320.167,250.167 320.5,249.5C 318.565,246.062 316.065,243.062 313,240.5C 312.503,238.19 312.337,235.857 312.5,233.5C 310.857,233.52 309.524,232.853 308.5,231.5C 301.884,220.863 298.551,209.196 298.5,196.5 Z"/></g>
<g><path style="opacity:0.329" fill="#b63843" d="M 475.5,245.5 C 477.587,246.585 478.92,248.251 479.5,250.5C 477.413,249.415 476.08,247.749 475.5,245.5 Z"/></g>
<g><path style="opacity:1" fill="#640606" d="M 297.5,188.5 C 297.833,188.5 298.167,188.5 298.5,188.5C 299.167,189.5 299.833,190.5 300.5,191.5C 301.38,194.262 302.546,196.929 304,199.5C 307,203.167 310,206.833 313,210.5C 314.388,209.446 315.888,209.28 317.5,210C 316.167,211 316.167,212 317.5,213C 319.577,213.192 321.577,213.692 323.5,214.5C 324.369,216.868 326.035,218.368 328.5,219C 328.167,219.333 327.833,219.667 327.5,220C 328.035,222.109 329.035,222.609 330.5,221.5C 331.48,222.981 332.647,224.315 334,225.5C 334.388,224.572 335.055,223.905 336,223.5C 337.537,224.035 339.037,224.368 340.5,224.5C 338.264,225.164 336.264,226.331 334.5,228C 337.985,229.106 339.152,231.273 338,234.5C 338.333,233.833 338.667,233.167 339,232.5C 340,233.833 341,233.833 342,232.5C 344.167,233.891 345.167,235.558 345,237.5C 347.078,236.48 348.745,237.147 350,239.5C 350.333,238.833 350.667,238.167 351,237.5C 351.5,238.667 352.333,239.5 353.5,240C 353.167,240.333 352.833,240.667 352.5,241C 354.5,241.333 356.5,241.667 358.5,242C 359.126,242.75 359.626,243.584 360,244.5C 360.718,243.549 361.551,243.383 362.5,244C 361.495,245.507 360.162,246.673 358.5,247.5C 358.938,248.506 359.604,248.506 360.5,247.5C 361.327,249.162 362.493,250.495 364,251.5C 364.5,251 365,250.5 365.5,250C 363.556,246.103 364.39,242.603 368,239.5C 368.96,241.379 369.46,243.379 369.5,245.5C 370.429,244.311 370.762,242.978 370.5,241.5C 372.144,241.714 373.644,241.38 375,240.5C 374.339,242.035 374.006,243.702 374,245.5C 375.667,245.167 377.333,244.833 379,244.5C 379.005,248.692 380.839,250.358 384.5,249.5C 383.494,248.604 383.494,247.938 384.5,247.5C 385.167,248.5 385.833,249.5 386.5,250.5C 387.598,246.639 388.431,246.639 389,250.5C 389.903,249.299 391.069,248.465 392.5,248C 391.672,247.085 390.672,246.419 389.5,246C 390.416,245.626 391.25,245.126 392,244.5C 392.419,245.672 393.085,246.672 394,247.5C 394.595,243.918 395.929,243.584 398,246.5C 398.233,244.22 399.066,242.22 400.5,240.5C 400.19,242.201 400.69,243.868 402,245.5C 403.147,244.542 404.147,244.875 405,246.5C 405.76,244.503 406.26,242.837 406.5,241.5C 411.74,241.674 417.573,242.007 424,242.5C 424.837,240.993 426.004,240.493 427.5,241C 425.808,242.307 424.475,243.807 423.5,245.5C 419.675,244.789 416.675,245.955 414.5,249C 405.167,252.333 395.833,255.667 386.5,259C 370.48,262.974 355.814,260.308 342.5,251C 333.957,242.959 325.957,234.459 318.5,225.5C 317.689,222.38 315.855,219.38 313,216.5C 312.805,217.819 312.972,219.153 313.5,220.5C 312.317,219.496 310.984,218.662 309.5,218C 309.833,217.667 310.167,217.333 310.5,217C 309.751,215.266 309.251,213.433 309,211.5C 305.061,204.475 301.228,197.475 297.5,190.5C 297.5,189.833 297.5,189.167 297.5,188.5 Z"/></g>
<g><path style="opacity:1" fill="#bf1012" d="M 441.5,231.5 C 442.133,231.88 442.8,232.213 443.5,232.5C 441.919,235.125 439.585,236.458 436.5,236.5C 436.785,238.288 436.452,239.955 435.5,241.5C 433.786,240.391 433.119,241.058 433.5,243.5C 434.552,243.351 435.552,243.517 436.5,244C 436.167,244.333 435.833,244.667 435.5,245C 428.705,244.492 427.371,246.492 431.5,251C 426.953,253.131 422.287,254.631 417.5,255.5C 417.5,256.833 417.5,258.167 417.5,259.5C 414.5,259.5 411.5,259.5 408.5,259.5C 408.357,261.262 408.691,262.929 409.5,264.5C 408.042,265.782 406.708,265.782 405.5,264.5C 406.391,263.739 407.058,262.739 407.5,261.5C 406.572,260.232 406.405,258.899 407,257.5C 410.978,259.201 414.145,258.201 416.5,254.5C 419.753,253.402 423.086,252.736 426.5,252.5C 426.374,250.8 425.707,249.3 424.5,248C 425.604,246.285 426.938,244.785 428.5,243.5C 432.841,239.456 437.175,235.456 441.5,231.5 Z"/></g>
<g><path style="opacity:1" fill="#820809" d="M 297.5,190.5 C 301.228,197.475 305.061,204.475 309,211.5C 309.251,213.433 309.751,215.266 310.5,217C 310.167,217.333 309.833,217.667 309.5,218C 310.984,218.662 312.317,219.496 313.5,220.5C 315.395,221.973 317.061,223.64 318.5,225.5C 325.957,234.459 333.957,242.959 342.5,251C 355.814,260.308 370.48,262.974 386.5,259C 395.833,255.667 405.167,252.333 414.5,249C 416.675,245.955 419.675,244.789 423.5,245.5C 419.906,249.8 415.239,252.3 409.5,253C 408.371,255.168 406.871,255.668 405,254.5C 404.517,255.448 404.351,256.448 404.5,257.5C 400.613,258.443 396.947,259.943 393.5,262C 388.981,261.859 384.981,263.026 381.5,265.5C 380.318,263.355 378.818,263.355 377,265.5C 374.056,264.743 371.056,264.077 368,263.5C 367.228,263.645 366.561,263.978 366,264.5C 362.79,261.659 359.123,260.992 355,262.5C 353.756,260.424 351.923,259.424 349.5,259.5C 349.5,258.5 349.5,257.5 349.5,256.5C 343.123,256.784 338.457,254.117 335.5,248.5C 331.579,247.14 327.912,245.306 324.5,243C 322.68,240.36 321.346,237.527 320.5,234.5C 318.114,234.741 316.114,234.075 314.5,232.5C 309.449,220.154 304.116,208.154 298.5,196.5C 297.539,194.735 297.205,192.735 297.5,190.5 Z"/></g>
<g><path style="opacity:1" fill="#9e0b0c" d="M 314.5,232.5 C 316.114,234.075 318.114,234.741 320.5,234.5C 321.346,237.527 322.68,240.36 324.5,243C 327.912,245.306 331.579,247.14 335.5,248.5C 338.457,254.117 343.123,256.784 349.5,256.5C 349.5,257.5 349.5,258.5 349.5,259.5C 351.923,259.424 353.756,260.424 355,262.5C 359.123,260.992 362.79,261.659 366,264.5C 366.561,263.978 367.228,263.645 368,263.5C 371.056,264.077 374.056,264.743 377,265.5C 378.818,263.355 380.318,263.355 381.5,265.5C 384.981,263.026 388.981,261.859 393.5,262C 396.947,259.943 400.613,258.443 404.5,257.5C 404.351,256.448 404.517,255.448 405,254.5C 406.871,255.668 408.371,255.168 409.5,253C 415.239,252.3 419.906,249.8 423.5,245.5C 425.05,244.559 426.716,243.893 428.5,243.5C 426.938,244.785 425.604,246.285 424.5,248C 425.707,249.3 426.374,250.8 426.5,252.5C 423.086,252.736 419.753,253.402 416.5,254.5C 414.145,258.201 410.978,259.201 407,257.5C 406.405,258.899 406.572,260.232 407.5,261.5C 407.058,262.739 406.391,263.739 405.5,264.5C 405.167,264.5 404.833,264.5 404.5,264.5C 399.63,262.506 395.464,263.506 392,267.5C 390.657,266.786 389.324,267.12 388,268.5C 383.234,267.766 378.568,267.766 374,268.5C 366.179,267.18 358.346,265.68 350.5,264C 345.917,261.746 341.917,258.746 338.5,255C 336.655,253.872 334.655,253.372 332.5,253.5C 332.623,249.96 330.957,247.96 327.5,247.5C 327.649,248.552 327.483,249.552 327,250.5C 325.89,248.963 324.39,248.297 322.5,248.5C 322.649,247.448 322.483,246.448 322,245.5C 319.237,243.245 317.071,240.579 315.5,237.5C 314.548,235.955 314.215,234.288 314.5,232.5 Z"/></g>
<g><path style="opacity:0.104" fill="#000000" d="M 455.5,477.5 C 455.328,478.492 455.662,479.158 456.5,479.5C 456.557,480.609 456.89,481.609 457.5,482.5C 458.167,483.5 458.833,484.5 459.5,485.5C 459.611,486.117 459.944,486.617 460.5,487C 506.837,487.833 553.17,487.667 599.5,486.5C 598.82,485.14 598.153,483.807 597.5,482.5C 602.775,482.355 607.775,483.355 612.5,485.5C 612.5,487.167 612.5,488.833 612.5,490.5C 610.049,491.894 607.382,492.728 604.5,493C 592.686,493.936 581.02,494.77 569.5,495.5C 541.833,495.5 514.167,495.5 486.5,495.5C 474.98,494.77 463.314,493.936 451.5,493C 449.048,492.71 446.715,492.044 444.5,491C 443.663,489.989 443.33,488.822 443.5,487.5C 435.472,487.831 427.472,487.498 419.5,486.5C 390.473,435.104 361.473,383.771 332.5,332.5C 339.079,321.013 346.412,310.013 354.5,299.5C 355.086,299.709 355.586,300.043 356,300.5C 388.702,359.918 421.868,418.918 455.5,477.5 Z"/></g>
<g><path style="opacity:1" fill="#d01010" d="M 114.5,387.5 C 117.712,389.213 121.046,391.046 124.5,393C 123.167,393.667 121.833,393.667 120.5,393C 117.919,389.975 116.586,390.308 116.5,394C 114.781,395.87 113.781,398.037 113.5,400.5C 112.448,400.351 111.448,400.517 110.5,401C 110.833,401.333 111.167,401.667 111.5,402C 110.285,404.096 109.451,403.929 109,401.5C 109.268,404.596 111.101,406.263 114.5,406.5C 114.466,409.199 115.133,411.699 116.5,414C 114.975,415.009 113.308,415.509 111.5,415.5C 111.34,417.199 111.506,418.866 112,420.5C 113.113,421.711 114.28,421.711 115.5,420.5C 117.264,423.177 118.43,422.844 119,419.5C 120.516,422.051 121.349,421.718 121.5,418.5C 122.5,418.5 123.5,418.5 124.5,418.5C 123.973,423.809 125.64,428.309 129.5,432C 128.724,433.77 128.89,435.603 130,437.5C 130.251,435.567 130.751,433.734 131.5,432C 134.442,432.004 137.442,431.504 140.5,430.5C 140.719,431.675 140.386,432.675 139.5,433.5C 137.41,432.209 136.076,432.876 135.5,435.5C 136.145,436.732 136.311,438.065 136,439.5C 137.406,438.332 138.572,438.665 139.5,440.5C 142.118,440.605 144.784,440.439 147.5,440C 149.148,444.887 151.482,445.387 154.5,441.5C 157.279,443.675 159.446,446.342 161,449.5C 160.92,453.51 160.087,457.01 158.5,460C 159.26,461.441 159.926,462.941 160.5,464.5C 164.546,465.394 165.213,467.227 162.5,470C 164.107,471.049 164.773,472.549 164.5,474.5C 167.711,474.988 170.544,474.321 173,472.5C 173.5,473 174,473.5 174.5,474C 176.833,474.167 179.167,474.333 181.5,474.5C 198.358,474.535 215.358,474.368 232.5,474C 232.043,473.586 231.709,473.086 231.5,472.5C 232.167,472.167 232.833,471.833 233.5,471.5C 232.41,470.391 232.41,469.391 233.5,468.5C 234.387,469.973 235.387,471.306 236.5,472.5C 235.974,474.23 234.974,475.564 233.5,476.5C 203.94,477.314 174.606,477.647 145.5,477.5C 128.616,477.119 111.616,476.119 94.5,474.5C 93.9512,472.099 93.1178,469.765 92,467.5C 90.9916,467.018 89.825,466.852 88.5,467C 89.3279,466.085 90.3279,465.419 91.5,465C 89.9544,462.743 88.2877,460.576 86.5,458.5C 85.2638,457.754 83.9305,457.421 82.5,457.5C 82.3398,455.801 82.5065,454.134 83,452.5C 83.3333,453.5 83.6667,454.5 84,455.5C 84.6543,456.696 85.1543,456.696 85.5,455.5C 84.0517,452.218 82.385,449.052 80.5,446C 80.6448,445.228 80.9781,444.561 81.5,444C 79.2004,440.392 78.5338,436.559 79.5,432.5C 90.7915,417.208 102.458,402.208 114.5,387.5 Z"/></g>
<g><path style="opacity:1" fill="#c20d0d" d="M 79.5,432.5 C 78.5338,436.559 79.2004,440.392 81.5,444C 80.9781,444.561 80.6448,445.228 80.5,446C 82.385,449.052 84.0517,452.218 85.5,455.5C 85.1543,456.696 84.6543,456.696 84,455.5C 83.6667,454.5 83.3333,453.5 83,452.5C 82.5065,454.134 82.3398,455.801 82.5,457.5C 83.9305,457.421 85.2638,457.754 86.5,458.5C 88.2877,460.576 89.9544,462.743 91.5,465C 90.3279,465.419 89.3279,466.085 88.5,467C 89.825,466.852 90.9916,467.018 92,467.5C 93.1178,469.765 93.9512,472.099 94.5,474.5C 111.616,476.119 128.616,477.119 145.5,477.5C 174.606,477.647 203.94,477.314 233.5,476.5C 233.573,478.027 232.906,479.027 231.5,479.5C 196.165,479.667 160.832,479.5 125.5,479C 119.252,478.812 113.085,478.312 107,477.5C 106.275,478.059 105.442,478.392 104.5,478.5C 94.5791,477.445 84.7457,476.112 75,474.5C 74.6667,474.833 74.3333,475.167 74,475.5C 72.4452,473.854 70.7785,473.521 69,474.5C 67.3029,472.301 65.8029,469.968 64.5,467.5C 64.7093,466.914 65.0426,466.414 65.5,466C 64.0755,463.899 62.7422,461.733 61.5,459.5C 61.7437,457.45 62.077,455.45 62.5,453.5C 67.8178,446.186 73.4845,439.186 79.5,432.5 Z"/></g>
<g><path style="opacity:1" fill="#c20d0d" d="M 580.5,454.5 C 584.921,460.334 588.588,466.668 591.5,473.5C 591.586,474.496 591.252,475.329 590.5,476C 585.891,476.466 581.391,477.3 577,478.5C 576.586,478.043 576.086,477.709 575.5,477.5C 535.886,479.199 496.219,479.865 456.5,479.5C 455.662,479.158 455.328,478.492 455.5,477.5C 485.753,477.859 515.92,477.193 546,475.5C 547.398,476.051 548.732,476.384 550,476.5C 553.667,475.833 557.333,475.167 561,474.5C 563.498,475.121 565.832,474.455 568,472.5C 569.628,470.347 570.961,468.013 572,465.5C 572.333,466.167 572.667,466.833 573,467.5C 573.595,466.101 573.428,464.768 572.5,463.5C 573.167,463.167 573.833,462.833 574.5,462.5C 573.406,459.636 573.906,456.969 576,454.5C 577.277,453.928 578.777,453.928 580.5,454.5 Z"/></g>
<g><path style="opacity:1" fill="#b10d0e" d="M 591.5,473.5 C 592.401,474.29 593.068,475.29 593.5,476.5C 593.5,477.5 593.5,478.5 593.5,479.5C 548.212,482.17 502.879,483.17 457.5,482.5C 456.89,481.609 456.557,480.609 456.5,479.5C 496.219,479.865 535.886,479.199 575.5,477.5C 576.086,477.709 576.586,478.043 577,478.5C 581.391,477.3 585.891,476.466 590.5,476C 591.252,475.329 591.586,474.496 591.5,473.5 Z"/></g>
<g><path style="opacity:1" fill="#b10d0d" d="M 62.5,453.5 C 62.077,455.45 61.7437,457.45 61.5,459.5C 62.7422,461.733 64.0755,463.899 65.5,466C 65.0426,466.414 64.7093,466.914 64.5,467.5C 65.8029,469.968 67.3029,472.301 69,474.5C 70.7785,473.521 72.4452,473.854 74,475.5C 74.3333,475.167 74.6667,474.833 75,474.5C 84.7457,476.112 94.5791,477.445 104.5,478.5C 105.442,478.392 106.275,478.059 107,477.5C 113.085,478.312 119.252,478.812 125.5,479C 160.832,479.5 196.165,479.667 231.5,479.5C 231.573,481.027 230.906,482.027 229.5,482.5C 189.554,482.02 149.554,481.853 109.5,482C 92.776,481.554 76.1094,480.388 59.5,478.5C 57.988,477.138 56.488,476.804 55,477.5C 52.0614,476.872 49.2281,476.205 46.5,475.5C 49.9771,472.026 52.6438,468.026 54.5,463.5C 56.8171,459.854 59.4838,456.52 62.5,453.5 Z"/></g>
<g><path style="opacity:1" fill="#830606" d="M 44.5,476.5 C 44.4606,477.583 44.1272,478.583 43.5,479.5C 44.0253,480.192 44.6919,480.692 45.5,481C 70.3788,483.153 95.0455,485.32 119.5,487.5C 91.498,487.667 63.498,487.5 35.5,487C 38.3648,483.308 41.3648,479.808 44.5,476.5 Z"/></g>
<g><path style="opacity:1" fill="#a30c0d" d="M 46.5,475.5 C 49.2281,476.205 52.0614,476.872 55,477.5C 56.488,476.804 57.988,477.138 59.5,478.5C 76.1094,480.388 92.776,481.554 109.5,482C 149.554,481.853 189.554,482.02 229.5,482.5C 229.5,482.833 229.5,483.167 229.5,483.5C 228.833,483.5 228.5,483.833 228.5,484.5C 194.185,484.48 160.018,484.48 126,484.5C 99.1431,483.393 72.3097,481.393 45.5,478.5C 45.2627,477.209 45.596,476.209 46.5,475.5 Z"/></g>
<g><path style="opacity:1" fill="#9e0b0c" d="M 593.5,476.5 C 595.008,478.181 596.008,480.181 596.5,482.5C 595.737,483.268 594.737,483.768 593.5,484C 552.337,485.064 511.171,485.897 470,486.5C 466.466,486.365 462.966,486.031 459.5,485.5C 458.833,484.5 458.167,483.5 457.5,482.5C 502.879,483.17 548.212,482.17 593.5,479.5C 593.5,478.5 593.5,477.5 593.5,476.5 Z"/></g>
<g><path style="opacity:1" fill="#960b0c" d="M 54.5,463.5 C 52.6438,468.026 49.9771,472.026 46.5,475.5C 45.596,476.209 45.2627,477.209 45.5,478.5C 72.3097,481.393 99.1431,483.393 126,484.5C 160.018,484.48 194.185,484.48 228.5,484.5C 228.047,485.458 227.381,486.292 226.5,487C 190.835,487.5 155.168,487.667 119.5,487.5C 95.0455,485.32 70.3788,483.153 45.5,481C 44.6919,480.692 44.0253,480.192 43.5,479.5C 44.1272,478.583 44.4606,477.583 44.5,476.5C 47.0745,471.591 50.4078,467.258 54.5,463.5 Z"/></g>
<g><path style="opacity:0.984" fill="#8c0a0a" d="M 596.5,482.5 C 596.833,482.5 597.167,482.5 597.5,482.5C 598.153,483.807 598.82,485.14 599.5,486.5C 553.17,487.667 506.837,487.833 460.5,487C 459.944,486.617 459.611,486.117 459.5,485.5C 462.966,486.031 466.466,486.365 470,486.5C 511.171,485.897 552.337,485.064 593.5,484C 594.737,483.768 595.737,483.268 596.5,482.5 Z"/></g>
</svg>
